# xmcd CD database file
#
# Track frame offsets:
#	200
#	11372
#	23102
#	36785
#	46470
#	58605
#	71967
#	84935
#	94847
#	112162
#	127515
#	145392
#	157140
#	169272
#
# Disc length: 2455 seconds
#
# Revision: 0
# Processed by: cddbd v1.5.1PL0 Copyright (c) Steve Scherf et al.
# Submitted via: CDex 1.51
#
DISCID=bb09950e
DTITLE=Lesley Riddle - Step by Step: Lesley Riddle Meets the Carter Family
DYEAR=1993
DGENRE=Country
TTITLE0=Little School Girl
TTITLE1=Frisco Blues
TTITLE2=Broke and Weary Blues
TTITLE3=Hilltop Blue
TTITLE4=Motherless Children
TTITLE5=Titanic
TTITLE6=I'm Out on the Ocean A-Sailing
TTITLE7=I'm Working on a Building
TTITLE8=I Know What It Means to Be Lonesome
TTITLE9=Red River Blues
TTITLE10=One Kind Favor
TTITLE11=If You See My Savior
TTITLE12=The Cannon Ball
TTITLE13=Step by Step
EXTD=YEAR: 1993
EXTT0=
EXTT1=
EXTT2=
EXTT3=
EXTT4=
EXTT5=
EXTT6=
EXTT7=
EXTT8=
EXTT9=
EXTT10=
EXTT11=
EXTT12=
EXTT13=
PLAYORDER=
